<svg width="1400" height="550" fill="none" xmlns="http://www.w3.org/2000/svg"><path d="M386.274 64.625v-11.29h-4.588v11.29h-6.555v3.86h6.555v25.71c-.049 3.205.534 5.414 1.748 6.628 1.214 1.165 3.35 1.748 6.409 1.748.68 0 1.36-.024 2.04-.073a28.325 28.325 0 0 1 2.039-.073v-3.86a35.604 35.604 0 0 1-3.933.219c-1.651-.098-2.695-.559-3.132-1.384-.388-.874-.583-2.064-.583-3.57V68.486h7.648v-3.86h-7.648zm12.01-14.421v52.003h4.589V80.284c.049-1.845.34-3.545.874-5.099.583-1.602 1.36-2.961 2.331-4.078a10.476 10.476 0 0 1 3.641-2.695c1.457-.68 3.108-1.02 4.953-1.02 1.845 0 3.375.292 4.588.874 1.263.583 2.258 1.384 2.987 2.404.728 1.02 1.238 2.233 1.529 3.641.291 1.36.437 2.841.437 4.443v23.453h4.589V78.026c0-2.233-.219-4.249-.656-6.045-.437-1.797-1.19-3.302-2.258-4.516-1.068-1.262-2.5-2.233-4.297-2.913-1.748-.68-3.933-1.02-6.555-1.02-2.67 0-5.123.704-7.356 2.112-2.234 1.36-3.787 3.18-4.661 5.463h-.146V50.204h-4.589zm64.029 30.59h-24.327c.195-1.7.583-3.35 1.166-4.953.631-1.65 1.456-3.083 2.476-4.297a11.103 11.103 0 0 1 3.715-2.986c1.456-.777 3.131-1.166 5.025-1.166 1.845 0 3.496.389 4.953 1.166a11.1 11.1 0 0 1 3.714 2.986c1.02 1.214 1.797 2.622 2.331 4.224.583 1.603.898 3.278.947 5.026zm-24.327 3.86h28.915a29.343 29.343 0 0 0-.728-7.72c-.583-2.574-1.554-4.832-2.913-6.774-1.311-1.99-3.035-3.593-5.172-4.807-2.136-1.214-4.709-1.82-7.72-1.82-2.962 0-5.535.582-7.72 1.747-2.137 1.117-3.885 2.622-5.244 4.516-1.36 1.845-2.379 3.957-3.059 6.336a28.292 28.292 0 0 0-.947 7.284c0 2.67.316 5.22.947 7.647.68 2.38 1.699 4.491 3.059 6.337 1.359 1.796 3.107 3.229 5.244 4.297 2.185 1.019 4.758 1.529 7.72 1.529 4.759 0 8.424-1.165 10.998-3.496 2.622-2.33 4.418-5.632 5.39-9.905h-4.589c-.728 2.913-2.039 5.244-3.933 6.992-1.894 1.748-4.516 2.622-7.866 2.622-2.185 0-4.054-.461-5.608-1.384-1.554-.922-2.841-2.088-3.86-3.496a14.712 14.712 0 0 1-2.258-4.734c-.437-1.797-.656-3.52-.656-5.171zm58.549 5.317h-9.832c.097 2.525.655 4.637 1.675 6.336 1.068 1.651 2.403 2.986 4.006 4.006 1.651 1.02 3.52 1.748 5.608 2.185a31.2 31.2 0 0 0 6.409.655c2.137 0 4.225-.218 6.264-.655 2.088-.388 3.933-1.093 5.535-2.112a11.73 11.73 0 0 0 3.86-4.006c1.02-1.7 1.53-3.787 1.53-6.264 0-1.748-.34-3.204-1.02-4.37a8.855 8.855 0 0 0-2.695-2.986c-1.116-.825-2.403-1.48-3.86-1.966a41.298 41.298 0 0 0-4.37-1.238c-1.456-.34-2.889-.656-4.297-.947s-2.671-.607-3.787-.947c-1.069-.389-1.943-.874-2.622-1.457-.68-.582-1.02-1.335-1.02-2.258 0-.776.194-1.383.583-1.82a3.73 3.73 0 0 1 1.384-1.093 5.99 5.99 0 0 1 1.893-.437c.68-.097 1.311-.146 1.894-.146 1.845 0 3.447.365 4.807 1.093 1.359.68 2.112 2.015 2.258 4.006h9.832c-.194-2.331-.801-4.249-1.821-5.754-.971-1.554-2.209-2.792-3.714-3.715-1.505-.922-3.229-1.578-5.171-1.966a29.298 29.298 0 0 0-5.9-.583c-2.039 0-4.03.195-5.972.583-1.942.34-3.69.971-5.244 1.894-1.554.874-2.816 2.087-3.787 3.641-.923 1.554-1.384 3.545-1.384 5.972 0 1.651.34 3.06 1.019 4.225a9.379 9.379 0 0 0 2.695 2.84c1.117.729 2.379 1.336 3.788 1.821 1.456.437 2.937.826 4.442 1.166 3.691.776 6.555 1.553 8.595 2.33 2.088.777 3.132 1.942 3.132 3.496 0 .923-.219 1.7-.656 2.33a5.423 5.423 0 0 1-1.675 1.458c-.631.34-1.36.606-2.185.8-.777.146-1.53.22-2.258.22a12.26 12.26 0 0 1-2.986-.365 8.17 8.17 0 0 1-2.476-1.092 7.025 7.025 0 0 1-1.821-1.967c-.437-.825-.656-1.797-.656-2.913zm54.269-10.634h-16.825c.049-.728.195-1.554.437-2.476a8.553 8.553 0 0 1 1.384-2.622c.68-.826 1.554-1.505 2.622-2.04 1.117-.582 2.501-.874 4.152-.874 2.525 0 4.394.68 5.608 2.04 1.262 1.36 2.136 3.35 2.622 5.972zm-16.825 6.555h27.167c.194-2.913-.048-5.705-.728-8.376-.68-2.67-1.797-5.05-3.35-7.137-1.506-2.088-3.448-3.74-5.827-4.953-2.379-1.263-5.171-1.894-8.376-1.894-2.865 0-5.487.51-7.866 1.53-2.331 1.02-4.346 2.427-6.045 4.224-1.7 1.748-3.011 3.836-3.933 6.264-.923 2.427-1.384 5.05-1.384 7.866 0 2.913.437 5.584 1.311 8.011.923 2.428 2.209 4.516 3.86 6.264 1.651 1.748 3.666 3.108 6.045 4.079 2.38.922 5.05 1.383 8.012 1.383 4.273 0 7.915-.971 10.925-2.913 3.01-1.942 5.244-5.171 6.701-9.687h-9.104c-.34 1.166-1.263 2.282-2.768 3.35-1.505 1.02-3.302 1.53-5.39 1.53-2.913 0-5.147-.753-6.7-2.258-1.554-1.505-2.404-3.933-2.55-7.283zm31.407-21.34v37.655h10.343v-21.85c0-1.845.267-3.326.801-4.443.534-1.166 1.165-2.04 1.894-2.622.776-.631 1.553-1.044 2.33-1.238.826-.243 1.481-.364 1.967-.364 1.651 0 2.889.29 3.714.874.874.534 1.481 1.262 1.821 2.185.388.922.607 1.942.656 3.058.048 1.069.072 2.161.072 3.278v21.122h10.343V81.231c0-1.166.072-2.307.218-3.423.194-1.166.534-2.186 1.02-3.06a6.08 6.08 0 0 1 2.112-2.184c.923-.583 2.112-.874 3.569-.874 1.456 0 2.598.242 3.423.728.874.485 1.529 1.14 1.966 1.966.437.826.705 1.797.802 2.914.097 1.117.145 2.306.145 3.569v21.34h10.343v-25.2c0-2.428-.34-4.492-1.02-6.191-.68-1.748-1.627-3.156-2.841-4.225-1.213-1.068-2.67-1.845-4.37-2.33-1.699-.486-3.544-.729-5.535-.729-2.622 0-4.904.631-6.846 1.894-1.894 1.262-3.399 2.719-4.516 4.37-1.02-2.33-2.525-3.957-4.515-4.88-1.943-.922-4.103-1.384-6.483-1.384-2.476 0-4.685.534-6.627 1.603-1.894 1.068-3.521 2.573-4.88 4.515h-.146v-5.098h-9.76zm74.163-5.827v-8.521h-10.343v8.521h10.343zm-10.343 5.827v37.655h10.343V64.552h-10.343zm16.738 19.738h18.209v-4.225h-18.209v4.225zm27.552-8.73c.146-2.428.753-4.443 1.821-6.045a12.403 12.403 0 0 1 4.078-3.86c1.651-.971 3.496-1.651 5.536-2.04a30.5 30.5 0 0 1 6.263-.655c1.894 0 3.812.146 5.754.437 1.942.243 3.715.753 5.317 1.53a10.35 10.35 0 0 1 3.933 3.277c1.02 1.36 1.53 3.18 1.53 5.463v19.592c0 1.7.097 3.326.291 4.88.194 1.553.534 2.719 1.02 3.495h-10.488a22.944 22.944 0 0 1-.51-1.748 25.41 25.41 0 0 1-.219-1.893c-1.651 1.7-3.593 2.889-5.826 3.569a23.417 23.417 0 0 1-6.847 1.019c-1.796 0-3.471-.218-5.025-.655-1.554-.437-2.914-1.117-4.079-2.04-1.165-.922-2.088-2.087-2.768-3.496-.631-1.408-.946-3.083-.946-5.025 0-2.137.364-3.885 1.092-5.244.777-1.408 1.748-2.525 2.913-3.35a12.945 12.945 0 0 1 4.079-1.821 40.056 40.056 0 0 1 4.661-1.02 79.127 79.127 0 0 1 4.589-.583c1.505-.145 2.84-.364 4.006-.655 1.165-.291 2.088-.704 2.767-1.238.68-.583.996-1.408.947-2.477 0-1.116-.194-1.99-.582-2.622-.34-.68-.826-1.19-1.457-1.529-.583-.388-1.287-.631-2.112-.728a13.857 13.857 0 0 0-2.549-.219c-2.04 0-3.642.437-4.807 1.311-1.166.874-1.845 2.33-2.04 4.37h-10.342zm23.889 7.648c-.437.388-.995.704-1.675.947-.631.194-1.335.364-2.112.51-.728.145-1.505.266-2.331.363-.825.098-1.651.219-2.476.365-.777.145-1.554.34-2.331.582a6.867 6.867 0 0 0-1.966 1.02 4.485 4.485 0 0 0-1.311 1.53c-.34.63-.51 1.432-.51 2.403 0 .922.17 1.7.51 2.33.34.632.801 1.142 1.384 1.53.582.34 1.262.583 2.039.728.777.146 1.578.219 2.403.219 2.04 0 3.618-.34 4.735-1.02 1.116-.68 1.942-1.48 2.476-2.403.534-.971.85-1.942.947-2.913.145-.972.218-1.749.218-2.331v-3.86zM713.57 63.98v37.654h10.342V81.897c0-3.836.632-6.58 1.894-8.23 1.263-1.7 3.302-2.55 6.118-2.55 2.476 0 4.2.777 5.171 2.331.971 1.505 1.457 3.812 1.457 6.92v21.266h10.342v-23.16c0-2.331-.218-4.443-.655-6.337-.389-1.942-1.093-3.569-2.112-4.88-1.02-1.36-2.428-2.403-4.225-3.132-1.748-.777-4.006-1.165-6.773-1.165-2.185 0-4.322.51-6.41 1.53-2.087.97-3.787 2.549-5.098 4.734h-.218V63.98h-9.833zm40.989 0v37.654h10.342V81.897c0-3.836.631-6.58 1.894-8.23 1.262-1.7 3.301-2.55 6.118-2.55 2.476 0 4.2.777 5.171 2.331.971 1.505 1.456 3.812 1.456 6.92v21.266h10.343v-23.16c0-2.331-.219-4.443-.656-6.337-.388-1.942-1.092-3.569-2.112-4.88-1.02-1.36-2.428-2.403-4.224-3.132-1.748-.777-4.006-1.165-6.774-1.165-2.185 0-4.321.51-6.409 1.53-2.088.97-3.787 2.549-5.098 4.734h-.219V63.98h-9.832zm76.312 37.654V63.98h-10.342v19.738c0 3.835-.631 6.603-1.894 8.302-1.262 1.651-3.301 2.477-6.118 2.477-2.476 0-4.2-.753-5.171-2.258-.971-1.554-1.456-3.885-1.456-6.992V63.98h-10.343v23.16c0 2.331.194 4.468.583 6.41.437 1.894 1.165 3.52 2.185 4.88 1.02 1.31 2.403 2.33 4.151 3.059 1.797.728 4.079 1.092 6.847 1.092 2.185 0 4.321-.485 6.409-1.456 2.088-.972 3.787-2.55 5.098-4.735h.219v5.244h9.832zm5.228-26.074c.145-2.428.752-4.443 1.821-6.045a12.394 12.394 0 0 1 4.078-3.86c1.651-.971 3.496-1.651 5.536-2.04a30.486 30.486 0 0 1 6.263-.655c1.894 0 3.812.146 5.754.437 1.942.243 3.715.753 5.317 1.53a10.35 10.35 0 0 1 3.933 3.277c1.02 1.36 1.529 3.18 1.529 5.462V93.26c0 1.7.097 3.326.292 4.88.194 1.553.534 2.719 1.019 3.495h-10.488a23.4 23.4 0 0 1-.509-1.748 24.893 24.893 0 0 1-.219-1.893c-1.651 1.7-3.593 2.889-5.827 3.569a23.406 23.406 0 0 1-6.846 1.019c-1.796 0-3.472-.218-5.025-.655-1.554-.437-2.914-1.117-4.079-2.04-1.165-.922-2.088-2.087-2.768-3.496-.631-1.408-.947-3.083-.947-5.025 0-2.137.365-3.885 1.093-5.244.777-1.408 1.748-2.525 2.913-3.35a12.945 12.945 0 0 1 4.079-1.821 40.011 40.011 0 0 1 4.661-1.02 79.127 79.127 0 0 1 4.589-.583c1.505-.145 2.84-.364 4.006-.655 1.165-.291 2.087-.704 2.767-1.238.68-.583.996-1.408.947-2.477 0-1.116-.194-1.99-.583-2.622-.339-.68-.825-1.19-1.456-1.529-.583-.388-1.287-.631-2.112-.728a13.86 13.86 0 0 0-2.55-.219c-2.039 0-3.641.437-4.807 1.311-1.165.874-1.845 2.33-2.039 4.37h-10.342zm23.889 7.648c-.437.388-.995.704-1.675.946-.631.195-1.335.365-2.112.51-.729.146-1.505.267-2.331.364-.825.098-1.651.219-2.476.365-.777.145-1.554.34-2.331.582a6.867 6.867 0 0 0-1.966 1.02 4.463 4.463 0 0 0-1.311 1.53c-.34.63-.51 1.432-.51 2.403 0 .922.17 1.7.51 2.33a4.195 4.195 0 0 0 1.383 1.53c.583.34 1.263.583 2.04.728.777.146 1.578.219 2.403.219 2.04 0 3.618-.34 4.734-1.02 1.117-.68 1.943-1.48 2.477-2.403.534-.971.849-1.942.947-2.914.145-.97.218-1.748.218-2.33v-3.86zm16.476-33.576v52.002h10.343V49.632h-10.343zm57.33 25.418h4.588c-.097-2.039-.51-3.811-1.238-5.317a10.904 10.904 0 0 0-2.986-3.787c-1.214-1.02-2.646-1.772-4.297-2.258-1.603-.485-3.351-.728-5.244-.728-1.651 0-3.326.194-5.026.583-1.651.388-3.156.995-4.515 1.82a10.285 10.285 0 0 0-3.351 3.278c-.825 1.36-1.238 2.986-1.238 4.88 0 1.602.267 2.962.801 4.078a8.636 8.636 0 0 0 2.185 2.768c.971.728 2.088 1.36 3.351 1.894 1.262.485 2.646.922 4.151 1.31l5.899 1.312c1.02.243 2.016.534 2.987.874 1.019.34 1.918.777 2.694 1.31a5.23 5.23 0 0 1 1.821 1.895c.486.728.729 1.65.729 2.767 0 1.311-.34 2.428-1.02 3.35-.631.874-1.457 1.603-2.476 2.185a11.09 11.09 0 0 1-3.351 1.239 16.751 16.751 0 0 1-3.423.364c-3.059 0-5.632-.777-7.72-2.33-2.039-1.603-3.156-3.958-3.35-7.066h-4.589c.388 4.613 1.942 7.963 4.661 10.051 2.768 2.088 6.361 3.132 10.78 3.132 1.748 0 3.52-.194 5.316-.583 1.797-.388 3.399-1.019 4.807-1.893a11.674 11.674 0 0 0 3.569-3.496c.923-1.457 1.384-3.205 1.384-5.244 0-1.651-.316-3.084-.947-4.297a9.545 9.545 0 0 0-2.476-3.06c-.971-.825-2.112-1.48-3.423-1.966a15.83 15.83 0 0 0-3.86-1.092l-6.118-1.384a43.919 43.919 0 0 1-2.55-.728 13.801 13.801 0 0 1-2.549-1.239 7.578 7.578 0 0 1-1.966-1.748c-.486-.728-.728-1.602-.728-2.622 0-1.214.267-2.233.801-3.059a5.867 5.867 0 0 1 2.112-1.966 8.425 8.425 0 0 1 2.84-1.093 14.11 14.11 0 0 1 3.132-.364c1.311 0 2.549.17 3.715.51 1.165.291 2.185.777 3.059 1.457a7.204 7.204 0 0 1 2.185 2.622c.534 1.02.825 2.233.874 3.641zm9.937.51h4.589c.097-3.059 1.068-5.268 2.913-6.628 1.845-1.408 4.224-2.112 7.138-2.112 1.359 0 2.622.122 3.787.364 1.214.195 2.258.583 3.132 1.166a5.642 5.642 0 0 1 2.112 2.403c.534.971.801 2.234.801 3.787 0 1.02-.145 1.846-.437 2.477a3.536 3.536 0 0 1-1.092 1.53c-.486.34-1.093.582-1.821.728a26.72 26.72 0 0 1-2.549.364c-2.477.291-4.929.607-7.356.947-2.38.291-4.54.825-6.482 1.602-1.894.777-3.424 1.918-4.589 3.423-1.165 1.457-1.748 3.496-1.748 6.118 0 1.894.316 3.545.947 4.953.68 1.36 1.578 2.5 2.695 3.423 1.165.874 2.5 1.505 4.006 1.894 1.553.437 3.204.655 4.952.655 1.845 0 3.423-.17 4.734-.51 1.36-.34 2.549-.825 3.569-1.456a11.975 11.975 0 0 0 2.841-2.331 30.747 30.747 0 0 0 2.549-3.278h.145c0 .972.049 1.87.146 2.695.146.777.413 1.457.801 2.04.389.582.923 1.044 1.603 1.383.728.292 1.675.437 2.84.437.631 0 1.141-.024 1.53-.072.437-.049.922-.122 1.456-.219v-3.86a3.544 3.544 0 0 1-1.456.291c-1.797 0-2.695-.922-2.695-2.767V75.05c0-2.525-.413-4.564-1.238-6.118-.826-1.602-1.894-2.84-3.205-3.714-1.311-.874-2.792-1.457-4.443-1.748a24.504 24.504 0 0 0-4.953-.51c-2.185 0-4.175.243-5.972.728-1.796.486-3.374 1.238-4.734 2.258-1.311 1.02-2.355 2.33-3.132 3.933-.777 1.602-1.238 3.496-1.384 5.681zm24.472 5.535v5.973c0 1.845-.364 3.496-1.092 4.953a10.699 10.699 0 0 1-2.841 3.714c-1.165 1.02-2.549 1.796-4.151 2.33a15.793 15.793 0 0 1-5.026.802 9.834 9.834 0 0 1-3.131-.51 8.479 8.479 0 0 1-2.695-1.457 8.696 8.696 0 0 1-1.894-2.33c-.437-.923-.655-1.967-.655-3.132 0-1.845.534-3.253 1.602-4.225 1.117-1.02 2.525-1.796 4.224-2.33 1.7-.534 3.569-.923 5.608-1.166 2.088-.29 4.103-.607 6.045-.946.632-.098 1.36-.267 2.185-.51.826-.243 1.384-.631 1.676-1.166h.145zm11.621-31.463v52.002h4.589V49.632h-4.589zm38.206 30.59h-24.326c.194-1.7.583-3.35 1.165-4.953.632-1.651 1.457-3.083 2.477-4.297a11.09 11.09 0 0 1 3.714-2.986c1.46-.777 3.13-1.166 5.03-1.166 1.84 0 3.49.389 4.95 1.166 1.45.728 2.69 1.723 3.71 2.986 1.02 1.214 1.8 2.622 2.33 4.224.59 1.602.9 3.277.95 5.026zm-24.326 3.86h28.916c.1-2.622-.15-5.196-.73-7.72-.58-2.574-1.55-4.832-2.91-6.774-1.31-1.99-3.04-3.593-5.17-4.807-2.14-1.214-4.71-1.821-7.72-1.821-2.97 0-5.54.583-7.725 1.748-2.136 1.117-3.884 2.622-5.244 4.516-1.359 1.845-2.379 3.957-3.059 6.336a28.291 28.291 0 0 0-.946 7.284c0 2.67.315 5.22.946 7.647.68 2.38 1.7 4.491 3.059 6.336 1.36 1.797 3.108 3.229 5.244 4.298 2.185 1.019 4.755 1.529 7.725 1.529 4.75 0 8.42-1.165 10.99-3.496 2.63-2.33 4.42-5.632 5.39-9.905h-4.59c-.72 2.913-2.03 5.244-3.93 6.992-1.89 1.748-4.51 2.622-7.86 2.622-2.19 0-4.06-.462-5.61-1.384-1.556-.923-2.843-2.088-3.863-3.496a14.71 14.71 0 0 1-2.257-4.734c-.437-1.797-.656-3.52-.656-5.171zm-523.96 62.858c-.44.26-1.05.39-1.83.39-.66 0-1.19-.18-1.59-.54-.38-.38-.57-.99-.57-1.83-.7.84-1.52 1.45-2.46 1.83-.92.36-1.92.54-3 .54-.7 0-1.37-.08-2.01-.24-.62-.16-1.16-.41-1.62-.75a3.77 3.77 0 0 1-1.11-1.32c-.26-.56-.39-1.23-.39-2.01 0-.88.15-1.6.45-2.16.3-.56.69-1.01 1.17-1.35.5-.36 1.06-.63 1.68-.81.64-.18 1.29-.33 1.95-.45.7-.14 1.36-.24 1.98-.3.64-.08 1.2-.18 1.68-.3.48-.14.86-.33 1.14-.57.28-.26.42-.63.42-1.11 0-.56-.11-1.01-.33-1.35-.2-.34-.47-.6-.81-.78-.32-.18-.69-.3-1.11-.36-.4-.06-.8-.09-1.2-.09-1.08 0-1.98.21-2.7.63-.72.4-1.11 1.17-1.17 2.31h-2.55c.04-.96.24-1.77.6-2.43.36-.66.84-1.19 1.44-1.59.6-.42 1.28-.72 2.04-.9.78-.18 1.61-.27 2.49-.27.7 0 1.39.05 2.07.15.7.1 1.33.31 1.89.63.56.3 1.01.73 1.35 1.29.34.56.51 1.29.51 2.19v7.98c0 .6.03 1.04.09 1.32.08.28.32.42.72.42.22 0 .48-.05.78-.15v1.98zm-4.14-7.95c-.32.24-.74.42-1.26.54-.52.1-1.07.19-1.65.27-.56.06-1.13.14-1.71.24-.58.08-1.1.22-1.56.42-.46.2-.84.49-1.14.87-.28.36-.42.86-.42 1.5 0 .42.08.78.24 1.08.18.28.4.51.66.69.28.18.6.31.96.39.36.08.74.12 1.14.12.84 0 1.56-.11 2.16-.33.6-.24 1.09-.53 1.47-.87.38-.36.66-.74.84-1.14.18-.42.27-.81.27-1.17v-2.61zm6.513-7.5V147h2.55v-9.66c0-.3.07-.67.21-1.11.16-.46.4-.9.72-1.32.34-.42.77-.78 1.29-1.08.54-.3 1.18-.45 1.92-.45.58 0 1.05.09 1.41.27.38.16.68.4.9.72.22.3.37.66.45 1.08.1.42.15.88.15 1.38V147h2.55v-9.66c0-1.2.36-2.16 1.08-2.88.72-.72 1.71-1.08 2.97-1.08.62 0 1.12.09 1.5.27.4.18.71.43.93.75.22.3.37.66.45 1.08.08.42.12.87.12 1.35V147h2.55v-11.37c0-.8-.13-1.48-.39-2.04-.24-.58-.59-1.05-1.05-1.41-.44-.36-.98-.62-1.62-.78-.62-.18-1.32-.27-2.1-.27-1.02 0-1.96.23-2.82.69-.84.46-1.52 1.11-2.04 1.95-.32-.96-.87-1.64-1.65-2.04-.78-.4-1.65-.6-2.61-.6-2.18 0-3.85.88-5.01 2.64h-.06v-2.28h-2.4zm39.316 15.45c-.44.26-1.05.39-1.83.39-.66 0-1.19-.18-1.59-.54-.38-.38-.57-.99-.57-1.83-.7.84-1.52 1.45-2.46 1.83-.92.36-1.92.54-3 .54-.7 0-1.37-.08-2.01-.24-.62-.16-1.16-.41-1.62-.75a3.77 3.77 0 0 1-1.11-1.32c-.26-.56-.39-1.23-.39-2.01 0-.88.15-1.6.45-2.16.3-.56.69-1.01 1.17-1.35.5-.36 1.06-.63 1.68-.81.64-.18 1.29-.33 1.95-.45.7-.14 1.36-.24 1.98-.3.64-.08 1.2-.18 1.68-.3.48-.14.86-.33 1.14-.57.28-.26.42-.63.42-1.11 0-.56-.11-1.01-.33-1.35-.2-.34-.47-.6-.81-.78-.32-.18-.69-.3-1.11-.36-.4-.06-.8-.09-1.2-.09-1.08 0-1.98.21-2.7.63-.72.4-1.11 1.17-1.17 2.31h-2.55c.04-.96.24-1.77.6-2.43.36-.66.84-1.19 1.44-1.59.6-.42 1.28-.72 2.04-.9.78-.18 1.61-.27 2.49-.27.7 0 1.39.05 2.07.15.7.1 1.33.31 1.89.63.56.3 1.01.73 1.35 1.29.34.56.51 1.29.51 2.19v7.98c0 .6.03 1.04.09 1.32.08.28.32.42.72.42.22 0 .48-.05.78-.15v1.98zm-4.14-7.95c-.32.24-.74.42-1.26.54-.52.1-1.07.19-1.65.27-.56.06-1.13.14-1.71.24-.58.08-1.1.22-1.56.42-.46.2-.84.49-1.14.87-.28.36-.42.86-.42 1.5 0 .42.08.78.24 1.08.18.28.4.51.66.69.28.18.6.31.96.39.36.08.74.12 1.14.12.84 0 1.56-.11 2.16-.33.6-.24 1.09-.53 1.47-.87.38-.36.66-.74.84-1.14.18-.42.27-.81.27-1.17v-2.61zm5.254 6.06V147h13.08v-2.25h-9.9l9.48-11.52v-1.74h-12.06v2.25h8.76l-9.36 11.31zm18.374-16.35v-3.12h-2.55v3.12h2.55zm-2.55 2.79V147h2.55v-15.51h-2.55zm6.5 0V147h2.55v-8.76c0-.7.09-1.34.27-1.92.2-.6.49-1.12.87-1.56.38-.44.85-.78 1.41-1.02.58-.24 1.26-.36 2.04-.36.98 0 1.75.28 2.31.84.56.56.84 1.32.84 2.28V147h2.55v-10.2c0-.84-.09-1.6-.27-2.28-.16-.7-.45-1.3-.87-1.8s-.97-.89-1.65-1.17c-.68-.28-1.53-.42-2.55-.42-2.3 0-3.98.94-5.04 2.82h-.06v-2.46h-2.4zm30.05 14.19v-14.19h-2.4v2.22h-.03c-.46-.86-1.1-1.5-1.92-1.92a5.62 5.62 0 0 0-2.7-.66c-1.34 0-2.47.26-3.39.78-.92.5-1.66 1.15-2.22 1.95-.56.78-.96 1.66-1.2 2.64-.24.96-.36 1.9-.36 2.82 0 1.06.14 2.07.42 3.03.3.94.74 1.77 1.32 2.49.58.7 1.3 1.26 2.16 1.68.86.42 1.87.63 3.03.63 1 0 1.94-.22 2.82-.66.9-.46 1.57-1.17 2.01-2.13h.06v1.02c0 .86-.09 1.65-.27 2.37-.16.72-.43 1.33-.81 1.83-.38.52-.86.92-1.44 1.2-.58.3-1.29.45-2.13.45-.42 0-.86-.05-1.32-.15-.46-.08-.89-.22-1.29-.42-.38-.2-.71-.46-.99-.78-.26-.32-.4-.71-.42-1.17h-2.55c.04.84.26 1.55.66 2.13.4.58.9 1.05 1.5 1.41.62.36 1.3.62 2.04.78.76.16 1.5.24 2.22.24 2.48 0 4.3-.63 5.46-1.89 1.16-1.26 1.74-3.16 1.74-5.7zm-7.14-.75c-.84 0-1.54-.17-2.1-.51-.56-.36-1.01-.82-1.35-1.38-.34-.58-.58-1.22-.72-1.92s-.21-1.4-.21-2.1c0-.74.08-1.45.24-2.13.18-.68.45-1.28.81-1.8.38-.52.86-.93 1.44-1.23.58-.32 1.28-.48 2.1-.48.8 0 1.48.16 2.04.48.56.32 1.01.75 1.35 1.29.36.52.62 1.11.78 1.77.16.66.24 1.33.24 2.01 0 .72-.09 1.44-.27 2.16-.16.72-.42 1.37-.78 1.95-.36.56-.84 1.02-1.44 1.38-.58.34-1.29.51-2.13.51zm21.196-5.55c0-.76.08-1.5.24-2.22.16-.72.42-1.36.78-1.92.36-.56.84-1.01 1.44-1.35.6-.34 1.33-.51 2.19-.51.88 0 1.63.17 2.25.51.62.32 1.12.75 1.5 1.29.4.54.69 1.17.87 1.89a8.76 8.76 0 0 1 0 4.32c-.16.7-.43 1.33-.81 1.89-.38.54-.87.98-1.47 1.32-.6.34-1.33.51-2.19.51-.82 0-1.54-.16-2.16-.48-.6-.32-1.1-.75-1.5-1.29-.38-.54-.67-1.15-.87-1.83a8.52 8.52 0 0 1-.27-2.13zm12 7.62v-21.42h-2.55v7.98h-.06c-.28-.46-.63-.84-1.05-1.14-.4-.32-.83-.57-1.29-.75-.46-.2-.92-.34-1.38-.42-.46-.08-.89-.12-1.29-.12-1.18 0-2.22.22-3.12.66-.88.42-1.62 1-2.22 1.74-.58.72-1.02 1.57-1.32 2.55-.28.98-.42 2.02-.42 3.12s.15 2.14.45 3.12c.3.98.74 1.84 1.32 2.58.6.74 1.34 1.33 2.22 1.77.9.44 1.95.66 3.15.66 1.08 0 2.07-.19 2.97-.57.9-.38 1.56-1 1.98-1.86h.06v2.1h2.55zm14.693-9.24h-8.91c.04-.6.17-1.16.39-1.68.22-.54.52-1.01.9-1.41.38-.4.83-.71 1.35-.93.54-.24 1.14-.36 1.8-.36.64 0 1.22.12 1.74.36.54.22 1 .53 1.38.93.4.38.71.84.93 1.38.24.54.38 1.11.42 1.71zm2.46 4.32h-2.52c-.22 1.02-.68 1.78-1.38 2.28-.68.5-1.56.75-2.64.75-.84 0-1.57-.14-2.19-.42a4.38 4.38 0 0 1-1.53-1.11c-.4-.48-.69-1.02-.87-1.62-.18-.62-.26-1.27-.24-1.95h11.61a11.9 11.9 0 0 0-.27-2.97c-.2-1.04-.58-2-1.14-2.88-.54-.88-1.27-1.6-2.19-2.16-.9-.58-2.04-.87-3.42-.87-1.06 0-2.04.2-2.94.6-.88.4-1.65.96-2.31 1.68-.64.72-1.14 1.57-1.5 2.55-.36.98-.54 2.06-.54 3.24.04 1.18.21 2.27.51 3.27.32 1 .79 1.86 1.41 2.58.62.72 1.38 1.28 2.28 1.68.92.4 2 .6 3.24.6 1.76 0 3.22-.44 4.38-1.32 1.16-.88 1.91-2.19 2.25-3.93zm16.624 4.86c-.44.26-1.05.39-1.83.39-.66 0-1.19-.18-1.59-.54-.38-.38-.57-.99-.57-1.83-.7.84-1.52 1.45-2.46 1.83-.92.36-1.92.54-3 .54-.7 0-1.37-.08-2.01-.24-.62-.16-1.16-.41-1.62-.75a3.77 3.77 0 0 1-1.11-1.32c-.26-.56-.39-1.23-.39-2.01 0-.88.15-1.6.45-2.16.3-.56.69-1.01 1.17-1.35.5-.36 1.06-.63 1.68-.81.64-.18 1.29-.33 1.95-.45.7-.14 1.36-.24 1.98-.3.64-.08 1.2-.18 1.68-.3.48-.14.86-.33 1.14-.57.28-.26.42-.63.42-1.11 0-.56-.11-1.01-.33-1.35-.2-.34-.47-.6-.81-.78-.32-.18-.69-.3-1.11-.36-.4-.06-.8-.09-1.2-.09-1.08 0-1.98.21-2.7.63-.72.4-1.11 1.17-1.17 2.31h-2.55c.04-.96.24-1.77.6-2.43.36-.66.84-1.19 1.44-1.59.6-.42 1.28-.72 2.04-.9.78-.18 1.61-.27 2.49-.27.7 0 1.39.05 2.07.15.7.1 1.33.31 1.89.63.56.3 1.01.73 1.35 1.29.34.56.51 1.29.51 2.19v7.98c0 .6.03 1.04.09 1.32.08.28.32.42.72.42.22 0 .48-.05.78-.15v1.98zm-4.14-7.95c-.32.24-.74.42-1.26.54-.52.1-1.07.19-1.65.27-.56.06-1.13.14-1.71.24-.58.08-1.1.22-1.56.42-.46.2-.84.49-1.14.87-.28.36-.42.86-.42 1.5 0 .42.08.78.24 1.08.18.28.4.51.66.69.28.18.6.31.96.39.36.08.74.12 1.14.12.84 0 1.56-.11 2.16-.33.6-.24 1.09-.53 1.47-.87.38-.36.66-.74.84-1.14.18-.42.27-.81.27-1.17v-2.61zm6.663-13.41V147h2.55v-21.42h-2.55zm8.06 16.53h-2.55c.04.96.24 1.78.6 2.46.36.66.84 1.2 1.44 1.62.6.4 1.29.69 2.07.87.78.18 1.6.27 2.46.27.78 0 1.56-.08 2.34-.24.8-.14 1.51-.4 2.13-.78.64-.38 1.15-.88 1.53-1.5.4-.62.6-1.4.6-2.34 0-.74-.15-1.36-.45-1.86-.28-.5-.66-.91-1.14-1.23-.46-.34-1-.61-1.62-.81-.6-.2-1.22-.37-1.86-.51-.6-.14-1.2-.27-1.8-.39-.6-.14-1.14-.3-1.62-.48-.48-.2-.88-.44-1.2-.72-.3-.3-.45-.67-.45-1.11 0-.4.1-.72.3-.96.2-.26.46-.46.78-.6.32-.16.67-.27 1.05-.33.4-.06.79-.09 1.17-.09.42 0 .83.05 1.23.15.42.08.8.22 1.14.42.34.2.62.47.84.81.22.32.35.73.39 1.23h2.55c-.06-.94-.26-1.72-.6-2.34a3.85 3.85 0 0 0-1.38-1.5c-.56-.38-1.21-.64-1.95-.78-.74-.16-1.55-.24-2.43-.24-.68 0-1.37.09-2.07.27-.68.16-1.3.42-1.86.78-.54.34-.99.79-1.35 1.35-.34.56-.51 1.23-.51 2.01 0 1 .25 1.78.75 2.34.5.56 1.12 1 1.86 1.32.76.3 1.58.54 2.46.72.88.16 1.69.35 2.43.57.76.2 1.39.47 1.89.81.5.34.75.84.75 1.5 0 .48-.12.88-.36 1.2-.24.3-.55.53-.93.69-.36.16-.76.27-1.2.33-.44.06-.86.09-1.26.09-.52 0-1.03-.05-1.53-.15-.48-.1-.92-.26-1.32-.48a2.95 2.95 0 0 1-.93-.93c-.24-.4-.37-.88-.39-1.44zm21.79-16.53V147h2.55v-8.76c0-.7.09-1.34.27-1.92.2-.6.49-1.12.87-1.56.38-.44.85-.78 1.41-1.02.58-.24 1.26-.36 2.04-.36.98 0 1.75.28 2.31.84.56.56.84 1.32.84 2.28V147h2.55v-10.2c0-.84-.09-1.6-.27-2.28-.16-.7-.45-1.3-.87-1.8s-.97-.89-1.65-1.17c-.68-.28-1.53-.42-2.55-.42-.46 0-.94.05-1.44.15-.48.1-.95.26-1.41.48-.44.2-.84.47-1.2.81-.36.32-.64.72-.84 1.2h-.06v-8.19h-2.55zm27.44 12.18h-8.91c.04-.6.17-1.16.39-1.68.22-.54.52-1.01.9-1.41.38-.4.83-.71 1.35-.93.54-.24 1.14-.36 1.8-.36.64 0 1.22.12 1.74.36.54.22 1 .53 1.38.93.4.38.71.84.93 1.38.24.54.38 1.11.42 1.71zm2.46 4.32h-2.52c-.22 1.02-.68 1.78-1.38 2.28-.68.5-1.56.75-2.64.75-.84 0-1.57-.14-2.19-.42a4.38 4.38 0 0 1-1.53-1.11c-.4-.48-.69-1.02-.87-1.62-.18-.62-.26-1.27-.24-1.95h11.61a11.9 11.9 0 0 0-.27-2.97c-.2-1.04-.58-2-1.14-2.88-.54-.88-1.27-1.6-2.19-2.16-.9-.58-2.04-.87-3.42-.87-1.06 0-2.04.2-2.94.6-.88.4-1.65.96-2.31 1.68-.64.72-1.14 1.57-1.5 2.55-.36.98-.54 2.06-.54 3.24.04 1.18.21 2.27.51 3.27.32 1 .79 1.86 1.41 2.58.62.72 1.38 1.28 2.28 1.68.92.4 2 .6 3.24.6 1.76 0 3.22-.44 4.38-1.32 1.16-.88 1.91-2.19 2.25-3.93zm2.793-10.59V147h2.55v-6.9c0-1 .1-1.88.3-2.64.2-.78.52-1.44.96-1.98.44-.54 1.02-.95 1.74-1.23s1.59-.42 2.61-.42v-2.7c-1.38-.04-2.52.24-3.42.84-.9.6-1.66 1.53-2.28 2.79h-.06v-3.27h-2.4zm20.323 6.27h-8.91c.04-.6.17-1.16.39-1.68.22-.54.52-1.01.9-1.41.38-.4.83-.71 1.35-.93.54-.24 1.14-.36 1.8-.36.64 0 1.22.12 1.74.36.54.22 1 .53 1.38.93.4.38.71.84.93 1.38.24.54.38 1.11.42 1.71zm2.46 4.32h-2.52c-.22 1.02-.68 1.78-1.38 2.28-.68.5-1.56.75-2.64.75-.84 0-1.57-.14-2.19-.42a4.38 4.38 0 0 1-1.53-1.11c-.4-.48-.69-1.02-.87-1.62-.18-.62-.26-1.27-.24-1.95h11.61a11.9 11.9 0 0 0-.27-2.97c-.2-1.04-.58-2-1.14-2.88-.54-.88-1.27-1.6-2.19-2.16-.9-.58-2.04-.87-3.42-.87-1.06 0-2.04.2-2.94.6-.88.4-1.65.96-2.31 1.68-.64.72-1.14 1.57-1.5 2.55-.36.98-.54 2.06-.54 3.24.04 1.18.21 2.27.51 3.27.32 1 .79 1.86 1.41 2.58.62.72 1.38 1.28 2.28 1.68.92.4 2 .6 3.24.6 1.76 0 3.22-.44 4.38-1.32 1.16-.88 1.91-2.19 2.25-3.93zm13.093-2.82c0-.94.12-1.77.36-2.49.26-.74.61-1.36 1.05-1.86.44-.5.95-.88 1.53-1.14.6-.26 1.23-.39 1.89-.39.66 0 1.28.13 1.86.39.6.26 1.12.64 1.56 1.14.44.5.78 1.12 1.02 1.86.26.72.39 1.55.39 2.49 0 .94-.13 1.78-.39 2.52-.24.72-.58 1.33-1.02 1.83-.44.48-.96.85-1.56 1.11-.58.26-1.2.39-1.86.39-.66 0-1.29-.13-1.89-.39-.58-.26-1.09-.63-1.53-1.11-.44-.5-.79-1.11-1.05-1.83-.24-.74-.36-1.58-.36-2.52zm-2.7 0c0 1.14.16 2.2.48 3.18.32.98.8 1.84 1.44 2.58.64.72 1.43 1.29 2.37 1.71.94.4 2.02.6 3.24.6 1.24 0 2.32-.2 3.24-.6.94-.42 1.73-.99 2.37-1.71.64-.74 1.12-1.6 1.44-2.58.32-.98.48-2.04.48-3.18 0-1.14-.16-2.2-.48-3.18-.32-1-.8-1.86-1.44-2.58a6.697 6.697 0 0 0-2.37-1.74c-.92-.42-2-.63-3.24-.63-1.22 0-2.3.21-3.24.63-.94.42-1.73 1-2.37 1.74-.64.72-1.12 1.58-1.44 2.58-.32.98-.48 2.04-.48 3.18zm18.067-7.77V147h2.55v-8.76c0-.7.09-1.34.27-1.92.2-.6.49-1.12.87-1.56.38-.44.85-.78 1.41-1.02.58-.24 1.26-.36 2.04-.36.98 0 1.75.28 2.31.84.56.56.84 1.32.84 2.28V147h2.55v-10.2c0-.84-.09-1.6-.27-2.28-.16-.7-.45-1.3-.87-1.8s-.97-.89-1.65-1.17c-.68-.28-1.53-.42-2.55-.42-2.3 0-3.98.94-5.04 2.82h-.06v-2.46h-2.4zm16.82-5.91V147h2.55v-21.42h-2.55zm12.59 23.49c-.3.76-.6 1.4-.9 1.92-.28.52-.6.94-.96 1.26-.34.34-.73.58-1.17.72-.42.16-.91.24-1.47.24-.3 0-.6-.02-.9-.06-.3-.04-.59-.11-.87-.21v-2.34c.22.1.47.18.75.24.3.08.55.12.75.12.52 0 .95-.13 1.29-.39.36-.24.63-.59.81-1.05l1.05-2.61-6.15-15.42h2.88l4.53 12.69h.06l4.35-12.69h2.7l-6.75 17.58zm20.8-17.58v-4.65h-2.55v4.65h-2.64v2.25h2.64v9.87c0 .72.07 1.3.21 1.74.14.44.35.78.629 1.02.301.24.681.41 1.141.51.48.08 1.05.12 1.71.12h1.95v-2.25h-1.17c-.4 0-.73-.01-.99-.03a1.36 1.36 0 0 1-.57-.21.816.816 0 0 1-.3-.42 3.45 3.45 0 0 1-.06-.72v-9.63h3.09v-2.25h-3.09zM812.555 147l4.95-15.51h-2.64l-3.48 12.69h-.06l-3.24-12.69h-2.79l-3.12 12.69h-.06l-3.51-12.69h-2.82l4.98 15.51h2.76l3.12-12.33h.06l3.15 12.33h2.7zm10.075-18.3v-3.12h-2.55v3.12h2.55zm-2.55 2.79V147h2.55v-15.51h-2.55zm17.03 4.98h2.64c-.1-.92-.34-1.71-.72-2.37-.38-.68-.87-1.24-1.47-1.68-.58-.44-1.26-.76-2.04-.96-.76-.22-1.58-.33-2.46-.33-1.22 0-2.29.22-3.21.66-.92.42-1.69 1.01-2.31 1.77-.6.74-1.05 1.62-1.35 2.64-.3 1-.45 2.08-.45 3.24 0 1.16.15 2.23.45 3.21.32.96.78 1.79 1.38 2.49.62.7 1.38 1.24 2.28 1.62.92.38 1.97.57 3.15.57 1.98 0 3.54-.52 4.68-1.56 1.16-1.04 1.88-2.52 2.16-4.44h-2.61c-.16 1.2-.6 2.13-1.32 2.79-.7.66-1.68.99-2.94.99-.8 0-1.49-.16-2.07-.48-.58-.32-1.05-.74-1.41-1.26-.36-.54-.63-1.15-.81-1.83-.16-.68-.24-1.38-.24-2.1 0-.78.08-1.53.24-2.25.16-.74.42-1.39.78-1.95.38-.56.88-1.01 1.5-1.35.62-.34 1.39-.51 2.31-.51 1.08 0 1.94.27 2.58.81.64.54 1.06 1.3 1.26 2.28zm16.353 1.29h-8.91c.04-.6.17-1.16.39-1.68.22-.54.52-1.01.9-1.41.38-.4.83-.71 1.35-.93.54-.24 1.14-.36 1.8-.36.64 0 1.22.12 1.74.36.54.22 1 .53 1.38.93.4.38.71.84.93 1.38.24.54.38 1.11.42 1.71zm2.46 4.32h-2.52c-.22 1.02-.68 1.78-1.38 2.28-.68.5-1.56.75-2.64.75-.84 0-1.57-.14-2.19-.42a4.38 4.38 0 0 1-1.53-1.11c-.4-.48-.69-1.02-.87-1.62-.18-.62-.26-1.27-.24-1.95h11.61a11.9 11.9 0 0 0-.27-2.97c-.2-1.04-.58-2-1.14-2.88-.54-.88-1.27-1.6-2.19-2.16-.9-.58-2.04-.87-3.42-.87-1.06 0-2.04.2-2.94.6-.88.4-1.65.96-2.31 1.68-.64.72-1.14 1.57-1.5 2.55-.36.98-.54 2.06-.54 3.24.04 1.18.21 2.27.51 3.27.32 1 .79 1.86 1.41 2.58.62.72 1.38 1.28 2.28 1.68.92.4 2 .6 3.24.6 1.76 0 3.22-.44 4.38-1.32 1.16-.88 1.91-2.19 2.25-3.93zm24.973 4.86c-.44.26-1.05.39-1.83.39-.66 0-1.19-.18-1.59-.54-.38-.38-.57-.99-.57-1.83-.7.84-1.52 1.45-2.46 1.83-.92.36-1.92.54-3 .54-.7 0-1.37-.08-2.01-.24-.62-.16-1.16-.41-1.62-.75a3.77 3.77 0 0 1-1.11-1.32c-.26-.56-.39-1.23-.39-2.01 0-.88.15-1.6.45-2.16.3-.56.69-1.01 1.17-1.35.5-.36 1.06-.63 1.68-.81.64-.18 1.29-.33 1.95-.45.7-.14 1.36-.24 1.98-.3.64-.08 1.2-.18 1.68-.3.48-.14.86-.33 1.14-.57.28-.26.42-.63.42-1.11 0-.56-.11-1.01-.33-1.35-.2-.34-.47-.6-.81-.78-.32-.18-.69-.3-1.11-.36-.4-.06-.8-.09-1.2-.09-1.08 0-1.98.21-2.7.63-.72.4-1.11 1.17-1.17 2.31h-2.55c.04-.96.24-1.77.6-2.43.36-.66.84-1.19 1.44-1.59.6-.42 1.28-.72 2.04-.9.78-.18 1.61-.27 2.49-.27.7 0 1.39.05 2.07.15.7.1 1.33.31 1.89.63.56.3 1.01.73 1.35 1.29.34.56.51 1.29.51 2.19v7.98c0 .6.03 1.04.09 1.32.08.28.32.42.72.42.22 0 .48-.05.78-.15v1.98zm-4.14-7.95c-.32.24-.74.42-1.26.54-.52.1-1.07.19-1.65.27-.56.06-1.13.14-1.71.24-.58.08-1.1.22-1.56.42-.46.2-.84.49-1.14.87-.28.36-.42.86-.42 1.5 0 .42.08.78.24 1.08.18.28.4.51.66.69.28.18.6.31.96.39.36.08.74.12 1.14.12.84 0 1.56-.11 2.16-.33.6-.24 1.09-.53 1.47-.87.38-.36.66-.74.84-1.14.18-.42.27-.81.27-1.17v-2.61zm20.953 10.08c-.3.76-.6 1.4-.9 1.92-.28.52-.6.94-.96 1.26-.34.34-.73.58-1.17.72-.42.16-.91.24-1.47.24-.3 0-.6-.02-.9-.06-.3-.04-.59-.11-.87-.21v-2.34c.22.1.47.18.75.24.3.08.55.12.75.12.52 0 .95-.13 1.29-.39.36-.24.63-.59.81-1.05l1.05-2.61-6.15-15.42h2.88l4.53 12.69h.06l4.35-12.69h2.7l-6.75 17.58zm19.68-11.31h-8.91c.04-.6.17-1.16.39-1.68.22-.54.52-1.01.9-1.41.38-.4.83-.71 1.35-.93.54-.24 1.14-.36 1.8-.36.64 0 1.22.12 1.74.36.54.22 1 .53 1.38.93.4.38.71.84.93 1.38.24.54.38 1.11.42 1.71zm2.46 4.32h-2.52c-.22 1.02-.68 1.78-1.38 2.28-.68.5-1.56.75-2.64.75-.84 0-1.57-.14-2.19-.42a4.38 4.38 0 0 1-1.53-1.11c-.4-.48-.69-1.02-.87-1.62-.18-.62-.26-1.27-.24-1.95h11.61a11.9 11.9 0 0 0-.27-2.97c-.2-1.04-.58-2-1.14-2.88-.54-.88-1.27-1.6-2.19-2.16-.9-.58-2.04-.87-3.42-.87-1.06 0-2.04.2-2.94.6-.88.4-1.65.96-2.31 1.68-.64.72-1.14 1.57-1.5 2.55-.36.98-.54 2.06-.54 3.24.04 1.18.21 2.27.51 3.27.32 1 .79 1.86 1.41 2.58.62.72 1.38 1.28 2.28 1.68.92.4 2 .6 3.24.6 1.76 0 3.22-.44 4.38-1.32 1.16-.88 1.91-2.19 2.25-3.93zm16.624 4.86c-.44.26-1.05.39-1.83.39-.66 0-1.19-.18-1.59-.54-.38-.38-.57-.99-.57-1.83-.7.84-1.52 1.45-2.46 1.83-.92.36-1.92.54-3 .54-.7 0-1.37-.08-2.01-.24-.62-.16-1.16-.41-1.62-.75a3.77 3.77 0 0 1-1.11-1.32c-.26-.56-.39-1.23-.39-2.01 0-.88.15-1.6.45-2.16.3-.56.69-1.01 1.17-1.35.5-.36 1.06-.63 1.68-.81.64-.18 1.29-.33 1.95-.45.7-.14 1.36-.24 1.98-.3.64-.08 1.2-.18 1.68-.3.48-.14.86-.33 1.14-.57.28-.26.42-.63.42-1.11 0-.56-.11-1.01-.33-1.35-.2-.34-.47-.6-.81-.78-.32-.18-.69-.3-1.11-.36-.4-.06-.8-.09-1.2-.09-1.08 0-1.98.21-2.7.63-.72.4-1.11 1.17-1.17 2.31h-2.55c.04-.96.24-1.77.6-2.43.36-.66.84-1.19 1.44-1.59.6-.42 1.28-.72 2.04-.9.78-.18 1.61-.27 2.49-.27.7 0 1.39.05 2.07.15.7.1 1.33.31 1.89.63.56.3 1.01.73 1.35 1.29.34.56.51 1.29.51 2.19v7.98c0 .6.03 1.04.09 1.32.08.28.32.42.72.42.22 0 .48-.05.78-.15v1.98zm-4.14-7.95c-.32.24-.74.42-1.26.54-.52.1-1.07.19-1.65.27-.56.06-1.13.14-1.71.24-.58.08-1.1.22-1.56.42-.46.2-.84.49-1.14.87-.28.36-.42.86-.42 1.5 0 .42.08.78.24 1.08.18.28.4.51.66.69.28.18.6.31.96.39.36.08.74.12 1.14.12.84 0 1.56-.11 2.16-.33.6-.24 1.09-.53 1.47-.87.38-.36.66-.74.84-1.14.18-.42.27-.81.27-1.17v-2.61zm6.423-7.5V147h2.55v-6.9c0-1 .1-1.88.3-2.64.2-.78.52-1.44.96-1.98.44-.54 1.02-.95 1.74-1.23s1.59-.42 2.61-.42v-2.7c-1.38-.04-2.52.24-3.42.84-.9.6-1.66 1.53-2.28 2.79h-.06v-3.27h-2.4z" fill="#252525"/><rect x="616" y="178" width="168.311" height="48.403" rx="4.034" fill="#252525"/><path d="M661.899 198.936h1.83c-.027-.8-.183-1.485-.468-2.054a3.855 3.855 0 0 0-1.139-1.444 4.578 4.578 0 0 0-1.668-.834 7.768 7.768 0 0 0-2.074-.265 7.3 7.3 0 0 0-1.953.265 5.171 5.171 0 0 0-1.688.773 3.822 3.822 0 0 0-1.18 1.322c-.298.529-.448 1.159-.448 1.892 0 .664.129 1.22.387 1.667a3.49 3.49 0 0 0 1.058 1.079c.447.271.949.494 1.505.671.556.162 1.119.312 1.688.447.583.122 1.153.244 1.709.366s1.051.285 1.485.489c.447.189.8.44 1.057.752.271.312.407.719.407 1.221 0 .528-.108.962-.325 1.301a2.452 2.452 0 0 1-.855.814c-.352.19-.752.325-1.2.407a7.083 7.083 0 0 1-1.302.122 6.187 6.187 0 0 1-1.586-.204 4.044 4.044 0 0 1-1.363-.63 3.428 3.428 0 0 1-.936-1.078c-.23-.448-.345-.977-.345-1.587h-1.831c0 .882.156 1.648.468 2.299a4.64 4.64 0 0 0 1.302 1.586 5.955 5.955 0 0 0 1.912.916 8.639 8.639 0 0 0 4.312.061 5.771 5.771 0 0 0 1.83-.733 4.3 4.3 0 0 0 1.323-1.342c.352-.556.528-1.221.528-1.993 0-.719-.135-1.316-.406-1.79a3.402 3.402 0 0 0-1.058-1.18 5.224 5.224 0 0 0-1.485-.732 17.677 17.677 0 0 0-1.709-.489 43.896 43.896 0 0 0-1.688-.366 9.92 9.92 0 0 1-1.505-.447c-.434-.176-.787-.4-1.058-.671-.257-.285-.386-.651-.386-1.099 0-.474.088-.868.264-1.18.19-.325.434-.583.732-.773a3.319 3.319 0 0 1 1.058-.406 5.859 5.859 0 0 1 1.2-.122c1.004 0 1.824.237 2.461.712.651.461 1.031 1.213 1.14 2.257zm4.504-4.251v14.523h1.729v-5.939c0-.475.061-.909.183-1.302.135-.407.332-.759.59-1.058a2.59 2.59 0 0 1 .956-.691c.393-.163.854-.244 1.383-.244.664 0 1.186.19 1.566.569.38.38.569.895.569 1.546v7.119h1.729v-6.915c0-.57-.061-1.085-.183-1.546a2.844 2.844 0 0 0-.59-1.221 2.836 2.836 0 0 0-1.118-.793c-.461-.19-1.038-.285-1.729-.285a4.97 4.97 0 0 0-.977.102 4.217 4.217 0 0 0-.956.325 2.968 2.968 0 0 0-.813.55 2.204 2.204 0 0 0-.57.813h-.04v-5.553h-1.729zm12.563 9.275c0-.637.082-1.2.244-1.688.177-.502.414-.922.712-1.261a3.013 3.013 0 0 1 1.038-.773 3.19 3.19 0 0 1 1.281-.264c.448 0 .868.088 1.261.264.407.176.76.434 1.058.773.298.339.529.759.691 1.261.177.488.265 1.051.265 1.688 0 .638-.088 1.207-.265 1.709a3.547 3.547 0 0 1-.691 1.241 3.077 3.077 0 0 1-1.058.752 3.034 3.034 0 0 1-1.261.265c-.447 0-.875-.088-1.281-.265a3.138 3.138 0 0 1-1.038-.752 3.838 3.838 0 0 1-.712-1.241 5.552 5.552 0 0 1-.244-1.709zm-1.83 0c0 .773.108 1.492.325 2.157a5.03 5.03 0 0 0 .976 1.749c.434.488.97.874 1.607 1.159.638.271 1.37.407 2.197.407.841 0 1.573-.136 2.197-.407a4.67 4.67 0 0 0 1.607-1.159 5.03 5.03 0 0 0 .976-1.749 6.915 6.915 0 0 0 .325-2.157c0-.773-.108-1.491-.325-2.156a4.791 4.791 0 0 0-.976-1.749 4.545 4.545 0 0 0-1.607-1.18c-.624-.284-1.356-.427-2.197-.427-.827 0-1.559.143-2.197.427a4.545 4.545 0 0 0-1.607 1.18 4.791 4.791 0 0 0-.976 1.749 6.908 6.908 0 0 0-.325 2.156zm12.31-5.268v14.523h1.729v-5.41h.041c.189.312.42.576.691.793.285.203.583.366.895.488.312.122.624.21.936.265.325.054.617.081.874.081.801 0 1.499-.142 2.096-.427a4.155 4.155 0 0 0 1.505-1.16 4.852 4.852 0 0 0 .895-1.749 7.196 7.196 0 0 0 .305-2.115c0-.746-.102-1.451-.305-2.116a5.142 5.142 0 0 0-.916-1.749 4.156 4.156 0 0 0-1.505-1.22c-.596-.299-1.302-.448-2.115-.448-.732 0-1.404.136-2.014.407a2.543 2.543 0 0 0-1.342 1.261h-.041v-1.424h-1.729zm8.136 5.167c0 .515-.054 1.017-.163 1.505a3.978 3.978 0 0 1-.528 1.302c-.245.379-.57.685-.977.915-.393.231-.888.346-1.485.346-.596 0-1.105-.109-1.525-.326a3.152 3.152 0 0 1-1.038-.895 3.83 3.83 0 0 1-.569-1.261 6.184 6.184 0 0 1-.183-1.505c0-.488.054-.969.163-1.444a3.83 3.83 0 0 1 .569-1.261c.258-.38.59-.685.997-.916.407-.23.902-.345 1.485-.345.556 0 1.037.108 1.444.325.42.217.759.509 1.017.875a3.6 3.6 0 0 1 .59 1.261c.135.461.203.936.203 1.424zm9.786-9.174v14.523h1.83v-11.655h.041l7.587 11.655h2.116v-14.523h-1.831v11.777h-.041l-7.648-11.777h-2.054zm15.676 9.275c0-.637.081-1.2.244-1.688.176-.502.413-.922.712-1.261a3.01 3.01 0 0 1 1.037-.773 3.195 3.195 0 0 1 1.282-.264c.447 0 .867.088 1.261.264.406.176.759.434 1.057.773.299.339.529.759.692 1.261.176.488.264 1.051.264 1.688 0 .638-.088 1.207-.264 1.709a3.549 3.549 0 0 1-.692 1.241 3.083 3.083 0 0 1-1.057.752 3.04 3.04 0 0 1-1.261.265 3.18 3.18 0 0 1-1.282-.265 3.134 3.134 0 0 1-1.037-.752 3.802 3.802 0 0 1-.712-1.241c-.163-.502-.244-1.071-.244-1.709zm-1.831 0c0 .773.109 1.492.326 2.157a5.03 5.03 0 0 0 .976 1.749 4.66 4.66 0 0 0 1.607 1.159c.637.271 1.369.407 2.197.407.84 0 1.573-.136 2.196-.407a4.66 4.66 0 0 0 1.607-1.159c.434-.502.76-1.085.977-1.749a6.915 6.915 0 0 0 .325-2.157c0-.773-.108-1.491-.325-2.156a4.793 4.793 0 0 0-.977-1.749 4.536 4.536 0 0 0-1.607-1.18c-.623-.284-1.356-.427-2.196-.427-.828 0-1.56.143-2.197.427a4.536 4.536 0 0 0-1.607 1.18 4.791 4.791 0 0 0-.976 1.749 6.908 6.908 0 0 0-.326 2.156zm22.664 5.248 3.356-10.516h-1.79l-2.359 8.604h-.041l-2.197-8.604h-1.892l-2.115 8.604h-.041l-2.379-8.604h-1.912l3.376 10.516h1.871l2.116-8.36h.04l2.136 8.36h1.831z" fill="#fff"/></svg>